<svg version="1.1" xmlns="http://www.w3.org/2000/svg" viewBox="0 0 240 180.00000000000728" width="720" height="540.0000000000218" filter="invert(93%) hue-rotate(180deg)">
  <!-- svg-source:excalidraw -->
  
  <defs>
    <style class="style-fonts">
      
    </style>
    
  </defs>
  <g transform="translate(16.66666666666788 13.333333333335759) rotate(0 41.66666666666606 73.33333333333212)" stroke="none"><path fill="#007299" d="M -2.06,-10.32 Q -2.06,-10.32 2.72,-11.33 7.50,-12.33 13.01,-12.86 18.52,-13.39 23.73,-13.61 28.95,-13.82 36.74,-14.15 44.54,-14.48 49.09,-14.75 53.64,-15.02 58.16,-15.23 62.68,-15.43 68.00,-15.59 73.32,-15.75 77.97,-15.89 82.62,-16.03 90.65,-12.59 98.68,-9.14 100.50,-4.01 102.33,1.11 102.70,7.19 103.08,13.27 101.85,18.27 100.62,23.28 97.68,28.48 94.73,33.69 89.72,41.88 84.70,50.07 79.89,55.35 75.08,60.64 72.93,64.49 70.78,68.35 66.00,73.99 61.21,79.64 58.87,83.24 56.52,86.84 53.40,91.40 50.29,95.95 46.73,100.28 43.17,104.61 37.56,111.21 31.95,117.81 30.28,122.20 28.62,126.59 25.62,130.12 22.62,133.65 18.78,137.91 14.95,142.16 11.39,146.32 7.83,150.48 6.45,152.93 5.07,155.39 3.90,157.12 2.74,158.86 1.08,160.13 -0.58,161.40 -2.56,162.07 -4.54,162.74 -6.63,162.75 -8.72,162.75 -10.70,162.09 -12.68,161.43 -14.35,160.17 -16.02,158.91 -17.20,157.18 -18.38,155.45 -18.94,153.44 -19.51,151.43 -19.40,149.34 -19.29,147.25 -18.52,145.31 -17.75,143.36 -16.40,141.76 -15.06,140.17 -13.27,139.08 -11.48,138.00 -9.44,137.55 -7.40,137.09 -5.32,137.31 -3.24,137.53 -1.34,138.41 0.55,139.28 2.07,140.71 3.60,142.15 4.58,143.99 5.57,145.84 5.91,147.90 6.25,149.96 5.92,152.03 5.59,154.09 4.61,155.94 3.64,157.79 2.12,159.23 0.61,160.67 -1.28,161.56 -3.17,162.44 -5.25,162.67 -7.33,162.90 -9.37,162.46 -11.41,162.01 -13.21,160.94 -15.00,159.87 -16.36,158.28 -17.72,156.69 -18.50,154.75 -19.28,152.81 -19.40,150.72 -19.51,148.63 -18.96,146.61 -18.41,144.60 -18.41,144.60 -18.41,144.60 -15.27,140.86 -12.13,137.13 -7.51,131.36 -2.88,125.59 1.01,121.74 4.90,117.88 8.05,114.51 11.20,111.15 16.04,104.86 20.89,98.57 23.60,94.59 26.32,90.62 29.18,87.22 32.05,83.81 35.03,79.20 38.01,74.58 40.99,70.14 43.98,65.70 47.21,61.43 50.45,57.16 53.65,51.23 56.86,45.29 60.12,41.06 63.39,36.83 65.77,32.69 68.14,28.54 71.80,21.75 75.45,14.96 79.04,12.16 82.62,9.37 77.97,9.23 73.32,9.09 68.01,8.93 62.69,8.77 58.20,8.57 53.71,8.37 49.22,8.14 44.73,7.91 37.21,7.79 29.70,7.67 24.99,7.80 20.29,7.93 15.97,8.22 11.65,8.50 6.86,9.41 2.06,10.32 0.79,10.42 -0.46,10.51 -1.71,10.31 -2.97,10.10 -4.13,9.60 -5.30,9.09 -6.31,8.33 -7.32,7.56 -8.12,6.57 -8.92,5.59 -9.46,4.44 -10.00,3.29 -10.25,2.04 -10.49,0.80 -10.44,-0.46 -10.38,-1.73 -10.02,-2.94 -9.67,-4.16 -9.03,-5.26 -8.39,-6.36 -7.50,-7.27 -6.62,-8.18 -5.55,-8.85 -4.47,-9.53 -3.26,-9.92 -2.06,-10.32 -2.06,-10.32 L -2.06,-10.32 Z"/></g><g transform="translate(153.33333333333212 16.666666666671517) rotate(0 26.66666666666788 0)" stroke="none"><path fill="#007299" d="M 0,-10.61 Q 0,-10.61 4.79,-10.66 9.58,-10.71 14.80,-11.00 20.03,-11.30 26.37,-11.64 32.72,-11.97 38.40,-12.24 44.08,-12.51 48.71,-12.65 53.33,-12.79 55.37,-12.45 57.41,-12.12 59.24,-11.15 61.07,-10.18 62.49,-8.68 63.92,-7.17 64.79,-5.30 65.66,-3.42 65.88,-1.36 66.10,0.69 65.66,2.71 65.21,4.73 64.15,6.50 63.08,8.28 61.50,9.62 59.92,10.96 58.00,11.72 56.08,12.49 54.01,12.60 51.94,12.71 49.95,12.16 47.96,11.61 46.24,10.44 44.53,9.28 43.28,7.63 42.02,5.99 41.36,4.02 40.70,2.06 40.70,-0.00 40.70,-2.07 41.36,-4.03 42.03,-5.99 43.28,-7.64 44.53,-9.28 46.25,-10.45 47.96,-11.61 49.95,-12.16 51.95,-12.71 54.01,-12.60 56.08,-12.49 58.00,-11.72 59.93,-10.96 61.50,-9.62 63.08,-8.28 64.15,-6.50 65.21,-4.73 65.66,-2.71 66.10,-0.68 65.88,1.36 65.65,3.42 64.79,5.30 63.92,7.18 62.49,8.68 61.07,10.18 59.24,11.15 57.41,12.12 55.37,12.45 53.32,12.79 53.33,12.79 53.33,12.79 48.71,12.65 44.08,12.51 38.40,12.24 32.72,11.97 26.37,11.64 20.03,11.30 14.80,11.00 9.58,10.71 4.79,10.66 0,10.61 -1.26,10.45 -2.53,10.30 -3.73,9.84 -4.93,9.39 -5.98,8.66 -7.03,7.94 -7.88,6.98 -8.73,6.02 -9.32,4.89 -9.92,3.76 -10.22,2.52 -10.53,1.27 -10.53,-0.00 -10.53,-1.27 -10.22,-2.52 -9.92,-3.76 -9.32,-4.89 -8.73,-6.02 -7.88,-6.98 -7.03,-7.94 -5.98,-8.66 -4.93,-9.39 -3.73,-9.84 -2.53,-10.30 -1.26,-10.45 0.00,-10.61 0.00,-10.61 L 0,-10.61 Z"/></g><g transform="translate(130 96.66666666667152) rotate(0 50 23.33333333333576)" stroke="none"><path fill="#007299" d="M 9.86,-3.94 Q 9.86,-3.94 11.79,0.84 13.71,5.62 17.23,12.77 20.76,19.92 24.16,24.95 27.57,29.99 31.33,36.73 35.09,43.47 38.05,48.16 41.01,52.85 43.14,56.53 45.26,60.22 38.92,62.98 32.57,65.73 35.21,59.38 37.85,53.02 41.88,45.49 45.91,37.96 48.40,31.91 50.89,25.86 54.13,19.19 57.37,12.51 62.05,5.54 66.73,-1.42 74.95,-10.23 83.18,-19.04 88.94,-25.17 94.71,-31.30 95.59,-32.02 96.47,-32.74 97.53,-33.15 98.59,-33.55 99.73,-33.60 100.87,-33.64 101.96,-33.32 103.05,-33.00 103.98,-32.34 104.91,-31.69 105.59,-30.77 106.26,-29.86 106.61,-28.77 106.95,-27.69 106.93,-26.55 106.91,-25.41 106.53,-24.34 106.15,-23.27 105.45,-22.37 104.75,-21.48 103.80,-20.86 102.84,-20.23 101.74,-19.95 100.64,-19.66 99.51,-19.74 98.37,-19.82 97.32,-20.26 96.27,-20.70 95.42,-21.45 94.56,-22.20 93.99,-23.18 93.42,-24.16 93.20,-25.28 92.97,-26.39 93.11,-27.52 93.25,-28.65 93.75,-29.68 94.24,-30.70 95.04,-31.51 95.83,-32.33 96.84,-32.84 97.86,-33.36 98.98,-33.53 100.11,-33.69 101.23,-33.49 102.35,-33.29 103.34,-32.74 104.34,-32.19 105.11,-31.35 105.88,-30.51 106.34,-29.47 106.80,-28.43 106.90,-27.30 107.01,-26.17 106.75,-25.06 106.48,-23.95 105.88,-22.99 105.28,-22.02 105.28,-22.02 105.28,-22.02 99.96,-15.51 94.63,-8.99 87.85,-0.70 81.07,7.58 77.50,13.80 73.93,20.03 71.30,26.35 68.66,32.67 66.34,39.17 64.02,45.66 61.24,54.12 58.47,62.58 54.12,71.30 49.77,80.01 40.73,81.70 31.70,83.39 28.03,78.96 24.35,74.52 20.57,67.81 16.79,61.09 14.14,55.78 11.48,50.46 8.15,43.23 4.81,35.99 1.15,28.96 -2.50,21.92 -4.27,17.72 -6.05,13.53 -7.95,8.74 -9.86,3.94 -10.19,2.70 -10.52,1.47 -10.54,0.18 -10.56,-1.09 -10.28,-2.33 -10.00,-3.58 -9.42,-4.73 -8.85,-5.87 -8.01,-6.85 -7.18,-7.82 -6.14,-8.57 -5.10,-9.31 -3.91,-9.79 -2.72,-10.26 -1.45,-10.44 -0.19,-10.62 1.08,-10.49 2.35,-10.36 3.56,-9.92 4.76,-9.49 5.83,-8.78 6.90,-8.07 7.76,-7.13 8.63,-6.19 9.25,-5.06 9.86,-3.94 9.86,-3.94 L 9.86,-3.94 Z"/></g></svg>